# xmcd CD database file
#
# Track frame offsets:
#	150
#	23267
#	51245
#	82719
#	113467
#	137930
#	163499
#
# Disc length: 2405 seconds
#
# Revision: 0
# Processed by: cddbd v1.5.2PL0 Copyright (c) Steve Scherf et al.
# Submitted via: CDex 1.51
#
DISCID=4c096307
DTITLE=Gerry Richardson's Big Idea - So Many Reasons
DYEAR=2012
DGENRE=Jazz
TTITLE0=So Many Reasons
TTITLE1=Ska Odyssey
TTITLE2=Lady Day and John Coltrane
TTITLE3=Song of the Ferris
TTITLE4=What I Do
TTITLE5=One door closes and another slams in your face
TTITLE6=Between You and Me
EXTD=YEAR: 2012
EXTT0=
EXTT1=
EXTT2=
EXTT3=
EXTT4=
EXTT5=
EXTT6=
PLAYORDER=
